<svg width="49" height="57" viewBox="0 0 49 57" fill="none" xmlns="http://www.w3.org/2000/svg">
<path d="M12.84 37.4C10.36 37.4 8.28 37.04 6.6 36.32C4.94667 35.5733 3.68 34.6133 2.8 33.44C1.94667 32.24 1.49333 30.9867 1.44 29.68C1.44 29.44 1.52 29.24 1.68 29.08C1.84 28.92 2.04 28.84 2.28 28.84H5.84C6.18667 28.84 6.44 28.92 6.6 29.08C6.78667 29.2133 6.94667 29.3867 7.08 29.6C7.24 30.1067 7.54667 30.6133 8 31.12C8.45333 31.6 9.06667 32 9.84 32.32C10.64 32.64 11.64 32.8 12.84 32.8C14.76 32.8 16.1867 32.48 17.12 31.84C18.08 31.2 18.56 30.3333 18.56 29.24C18.56 28.4667 18.3067 27.8533 17.8 27.4C17.2933 26.92 16.5067 26.4933 15.44 26.12C14.4 25.72 13.0133 25.3067 11.28 24.88C9.28 24.4 7.6 23.8267 6.24 23.16C4.90667 22.4667 3.89333 21.6 3.2 20.56C2.53333 19.52 2.2 18.2 2.2 16.6C2.2 15.0533 2.61333 13.68 3.44 12.48C4.29333 11.28 5.49333 10.3333 7.04 9.64C8.61333 8.94667 10.48 8.6 12.64 8.6C14.3733 8.6 15.9067 8.84 17.24 9.32C18.5733 9.77333 19.68 10.3867 20.56 11.16C21.44 11.9067 22.1067 12.72 22.56 13.6C23.04 14.4533 23.2933 15.2933 23.32 16.12C23.32 16.3333 23.24 16.5333 23.08 16.72C22.9467 16.88 22.7467 16.96 22.48 16.96H18.76C18.5467 16.96 18.3333 16.9067 18.12 16.8C17.9067 16.6933 17.7333 16.4933 17.6 16.2C17.44 15.3733 16.92 14.6667 16.04 14.08C15.16 13.4933 14.0267 13.2 12.64 13.2C11.2 13.2 10.04 13.4667 9.16 14C8.28 14.5333 7.84 15.36 7.84 16.48C7.84 17.2267 8.05333 17.8533 8.48 18.36C8.93333 18.84 9.64 19.2667 10.6 19.64C11.5867 20.0133 12.88 20.4133 14.48 20.84C16.7467 21.3467 18.6 21.9333 20.04 22.6C21.48 23.2667 22.5333 24.12 23.2 25.16C23.8667 26.1733 24.2 27.4667 24.2 29.04C24.2 30.8 23.72 32.3067 22.76 33.56C21.8267 34.7867 20.5067 35.7333 18.8 36.4C17.0933 37.0667 15.1067 37.4 12.84 37.4Z" fill="#353252"/>
<path d="M27.08 47C26.8133 47 26.5867 46.9067 26.4 46.72C26.2133 46.5333 26.12 46.3067 26.12 46.04V20C26.12 19.7067 26.2133 19.4667 26.4 19.28C26.5867 19.0933 26.8133 19 27.08 19H30.6C30.8933 19 31.1333 19.0933 31.32 19.28C31.5067 19.4667 31.6 19.7067 31.6 20V29.36L40.64 19.72C40.7467 19.5867 40.92 19.44 41.16 19.28C41.4267 19.0933 41.7733 19 42.2 19H46.16C46.3733 19 46.56 19.08 46.72 19.24C46.9067 19.4 47 19.6 47 19.84C47 20.0267 46.9467 20.1867 46.84 20.32L35.84 32.4L47.6 45.64C47.7333 45.8 47.8 45.9733 47.8 46.16C47.8 46.4 47.7067 46.6 47.52 46.76C47.36 46.92 47.1733 47 46.96 47H42.84C42.3867 47 42.0267 46.9067 41.76 46.72C41.52 46.5067 41.36 46.36 41.28 46.28L31.6 35.68V46.04C31.6 46.3067 31.5067 46.5333 31.32 46.72C31.1333 46.9067 30.8933 47 30.6 47H27.08Z" fill="#353252"/>
</svg>
